<svg version="1.1" xmlns="http://www.w3.org/2000/svg" xmlns:xlink="http://www.w3.org/1999/xlink" x="0px" y="0px" width="500px"
	 height="500px" viewBox="0 0 500 500" style="enable-background:new 0 0 500 500;" xml:space="preserve">
<style type="text/css">
	.st0{fill:#E8EFF6;}
	.st1{fill:#88A5C2;}
	.st2{fill:#B8CFE6;}
	.st3{fill:#A7BFD9;}
</style>
<defs>
</defs>
<rect class="st0" width="500" height="500"/>
<g>
	<path class="st1" d="M441.13,103.83c0-8.69-6.63-15.84-15.1-16.66c-0.4-8.36-5.29-16.23-13.41-20
		c-10.23-4.76-22.15-1.42-28.56,7.36c-5.43-3.91-12.9-4.34-18.86-0.49c-6.13,3.96-8.79,11.24-7.19,17.95
		c-7.85,0.04-14.2,6.42-14.2,14.28c0,7.89,6.39,14.29,14.28,14.29h67.97v-0.09C434.53,119.64,441.13,112.51,441.13,103.83z"/>
	<polygon class="st1" points="141.84,346.65 102.09,243.91 291.41,170.66 310.48,219.95 332.28,219.95 303.04,144.36 75.79,232.28 
		141.84,403 	"/>
	<path class="st2" d="M141.84,219.95V403H385.5V219.95H141.84z M365.17,382.67h-203V240.28h203V382.67z"/>
	<path class="st2" d="M186.92,281.89c0,11.09,8.99,20.08,20.09,20.08V261.8C195.92,261.8,186.92,270.8,186.92,281.89z"/>
	<path class="st1" d="M250.04,332.72l-24.74-8.51l-38.38,41.96C186.92,366.17,250.04,332.73,250.04,332.72z"/>
	<polygon class="st1" points="325,293 303.03,304.65 347.24,366.17 	"/>
	<polygon class="st3" points="186.92,366.17 231.61,366.17 250.04,332.73 	"/>
	<path class="st1" d="M303.03,304.65l-21.25-29.58l-31.74,57.65C250.04,332.72,303.03,304.65,303.03,304.65z"/>
	<polygon class="st3" points="347.24,366.17 303.03,304.65 250.04,332.73 	"/>
	<path class="st2" d="M250.04,332.73c0,0.01-18.42,33.44-18.42,33.44h115.63L250.04,332.73z"/>
	<path class="st2" d="M289.31,202.93c-2.28-2.82-6.27-4.7-10.8-4.7c-3.42,0-6.53,1.07-8.83,2.8c-2.3-1.73-5.41-2.8-8.83-2.8
		c-4.54,0-8.52,1.87-10.8,4.7c2.41-0.85,5.09-1.32,7.9-1.32c3.38,0,6.56,0.68,9.33,1.88c0.84,0.36,1.64,0.76,2.4,1.21
		c1.51,0.9,2.86,1.97,3.99,3.18c-0.1-1.59-0.68-3.08-1.59-4.39c2.78-1.2,5.95-1.88,9.33-1.88
		C284.22,201.6,286.89,202.08,289.31,202.93z"/>
	<path class="st1" d="M227.1,281.89c0,11.09-9,20.08-20.08,20.08V261.8C218.1,261.8,227.1,270.8,227.1,281.89z"/>
	<path class="st2" d="M197.51,150.09c-2.88-3.57-7.92-5.94-13.66-5.94c-4.32,0-8.25,1.34-11.16,3.54c-2.9-2.19-6.84-3.54-11.16-3.54
		c-5.73,0-10.77,2.37-13.66,5.94c3.06-1.07,6.43-1.67,9.99-1.67c4.27,0,8.29,0.87,11.8,2.38c1.05,0.46,2.07,0.96,3.03,1.54
		c1.91,1.13,3.62,2.49,5.05,4.01c-0.14-2.01-0.85-3.89-2.02-5.55c3.51-1.51,7.53-2.38,11.8-2.38
		C191.08,148.42,194.45,149.01,197.51,150.09z"/>
	<path class="st1" d="M119.48,89.62c0-5.41-4.12-9.86-9.41-10.37c-0.24-5.21-3.3-10.11-8.35-12.46c-6.37-2.96-13.79-0.89-17.78,4.58
		c-3.38-2.44-8.04-2.71-11.74-0.3c-3.82,2.46-5.48,7-4.48,11.18c-4.89,0.03-8.85,4-8.85,8.9c0,4.92,3.98,8.9,8.9,8.9h42.33
		C115.36,99.47,119.48,95.03,119.48,89.62z"/>
</g>
</svg>
